# xmcd
#
# Track frame offsets: 
#        150
#        43987
#        86842
#        125192
#        156155
#        186892
#        229957
#
# Disc length: 3729 seconds
#
# Revision: 2
# Processed by: cddbd v1.5.2PL0 Copyright (c) Steve Scherf et al.
# Submitted via: ExactAudioCopy v1.0b3
#
DISCID=640e8f07
DTITLE=Mayako Sone - Toccatas
DYEAR=2001
DGENRE=Classical
TTITLE0=Toccata in D major, BWV912
TTITLE1=Toccata in C minor, BWV911
TTITLE2=Toccata in G minor, BWV915
TTITLE3=Toccata in E minor, BWV914
TTITLE4=Toccata in G major, BWV916
TTITLE5=Toccata in F sharp minor, BWV910
TTITLE6=Toccata in D minor, BWV913
EXTD=
EXTT0=
EXTT1=
EXTT2=
EXTT3=
EXTT4=
EXTT5=
EXTT6=
PLAYORDER=
